<svg xmlns="http://www.w3.org/2000/svg" width="100" height="100" viewBox="0 0 100 100"><rect width="100%" height="100%" fill="#DDDDDD"/><path fill="#999999" d="M25.03 37.52v16.25h8.54v2.95H21.18v-19.2h3.85Zm9.85 12.21v-.27q0-3.19 1.78-5.23 1.78-2.04 4.93-2.04 3.16 0 4.95 2.03 1.8 2.03 1.8 5.24v.27q0 3.22-1.79 5.24Q44.76 57 41.61 57q-3.16 0-4.95-2.03-1.78-2.02-1.78-5.24Zm3.83-.27v.27q0 1.95.69 3.13.68 1.18 2.21 1.18 1.49 0 2.19-1.18.69-1.19.69-3.13v-.27q0-1.9-.7-3.1-.7-1.2-2.2-1.2-1.49 0-2.18 1.2-.7 1.21-.7 3.1Zm11.41.52v-.27q0-3.38 1.47-5.45 1.47-2.07 4.12-2.07 1.2 0 2.11.54.91.54 1.55 1.54l.31-1.81H63v14.19q0 2.79-1.83 4.31-1.82 1.52-5.08 1.52-1.08 0-2.29-.3-1.22-.29-2.25-.81l.72-2.87q.88.42 1.8.64.91.22 1.99.22 1.58 0 2.33-.66.74-.66.74-2.06v-1.29q-.63.8-1.49 1.22-.85.43-1.96.43-2.62 0-4.09-1.93-1.47-1.94-1.47-5.09Zm3.85-.27v.27q0 1.88.63 2.95.63 1.07 2.06 1.07.88 0 1.49-.32.62-.32.98-.94v-6.2q-.36-.64-.98-1-.61-.36-1.47-.36-1.41 0-2.06 1.26-.65 1.25-.65 3.27Zm11.39.02v-.27q0-3.19 1.78-5.23 1.78-2.04 4.93-2.04 3.16 0 4.95 2.03 1.8 2.03 1.8 5.24v.27q0 3.22-1.79 5.24Q75.24 57 72.09 57q-3.16 0-4.95-2.03-1.78-2.02-1.78-5.24Zm3.83-.27v.27q0 1.95.69 3.13.68 1.18 2.21 1.18 1.49 0 2.19-1.18.69-1.19.69-3.13v-.27q0-1.9-.7-3.1-.7-1.2-2.2-1.2-1.49 0-2.18 1.2-.7 1.21-.7 3.1Z"/></svg>